<svg width="12" height="13" viewBox="0 0 12 13" fill="none" xmlns="http://www.w3.org/2000/svg">
<path d="M10.0417 2H8.91667V0.78125C8.91667 0.640625 8.77604 0.5 8.63542 0.5H8.44792C8.28385 0.5 8.16667 0.640625 8.16667 0.78125V2H3.66667V0.78125C3.66667 0.640625 3.52604 0.5 3.38542 0.5H3.19792C3.03385 0.5 2.91667 0.640625 2.91667 0.78125V2H1.79167C1.15885 2 0.666666 2.51562 0.666666 3.125V11.375C0.666666 12.0078 1.15885 12.5 1.79167 12.5H10.0417C10.651 12.5 11.1667 12.0078 11.1667 11.375V3.125C11.1667 2.51562 10.651 2 10.0417 2ZM1.79167 2.75H10.0417C10.2292 2.75 10.4167 2.9375 10.4167 3.125V4.25H1.41667V3.125C1.41667 2.9375 1.58073 2.75 1.79167 2.75ZM10.0417 11.75H1.79167C1.58073 11.75 1.41667 11.5859 1.41667 11.375V5H10.4167V11.375C10.4167 11.5859 10.2292 11.75 10.0417 11.75ZM4.13542 8C4.27604 8 4.41667 7.88281 4.41667 7.71875V6.78125C4.41667 6.64062 4.27604 6.5 4.13542 6.5H3.19792C3.03385 6.5 2.91667 6.64062 2.91667 6.78125V7.71875C2.91667 7.88281 3.03385 8 3.19792 8H4.13542ZM6.38542 8C6.52604 8 6.66667 7.88281 6.66667 7.71875V6.78125C6.66667 6.64062 6.52604 6.5 6.38542 6.5H5.44792C5.28385 6.5 5.16667 6.64062 5.16667 6.78125V7.71875C5.16667 7.88281 5.28385 8 5.44792 8H6.38542ZM8.63542 8C8.77604 8 8.91667 7.88281 8.91667 7.71875V6.78125C8.91667 6.64062 8.77604 6.5 8.63542 6.5H7.69792C7.53385 6.5 7.41667 6.64062 7.41667 6.78125V7.71875C7.41667 7.88281 7.53385 8 7.69792 8H8.63542ZM6.38542 10.25C6.52604 10.25 6.66667 10.1328 6.66667 9.96875V9.03125C6.66667 8.89062 6.52604 8.75 6.38542 8.75H5.44792C5.28385 8.75 5.16667 8.89062 5.16667 9.03125V9.96875C5.16667 10.1328 5.28385 10.25 5.44792 10.25H6.38542ZM4.13542 10.25C4.27604 10.25 4.41667 10.1328 4.41667 9.96875V9.03125C4.41667 8.89062 4.27604 8.75 4.13542 8.75H3.19792C3.03385 8.75 2.91667 8.89062 2.91667 9.03125V9.96875C2.91667 10.1328 3.03385 10.25 3.19792 10.25H4.13542ZM8.63542 10.25C8.77604 10.25 8.91667 10.1328 8.91667 9.96875V9.03125C8.91667 8.89062 8.77604 8.75 8.63542 8.75H7.69792C7.53385 8.75 7.41667 8.89062 7.41667 9.03125V9.96875C7.41667 10.1328 7.53385 10.25 7.69792 10.25H8.63542Z" fill="#5EBC34"/>
</svg>
